# xmcd CD database file generated by Grip 3.0.5
# 
# Track frame offsets:
#       182
#       13632
#       28040
#       42875
#       58447
#       72452
#       85527
#       99797
#       113020
#       126775
#       140392
#       152765
#       167110
#       181692
#       196290
#       210282
#       223802
#       234195
#       247947
#       261550
#       274600
# 
# Disc length: 3825 seconds
# 
# Revision: 1
# Processed by: cddbd v1.5.1PL0 Copyright (c) Steve Scherf et al.
# Submitted via: Grip 3.0.5
# 
DISCID=1d0eef15
DTITLE=Duke Ellington - Volume 1:  1924-1926
DYEAR=1991
DGENRE=Jazz
TTITLE0=It's Gonna Be A Cold, Cold Winter
TTITLE1=Parlor Social De Luxe
TTITLE2=Choo Choo
TTITLE3=Rainy Nights
TTITLE4=Deacon Jazz
TTITLE5=Oh, How I Love My Darling
TTITLE6=How Come You Do Me Like You Do?
TTITLE7=Everything Is Hotsy Totsy Now
TTITLE8=I'm Gonna Hang Around My Sugar
TTITLE9=Trombone Blues
TTITLE10=Georgia Grind
TTITLE11=Parlor Social Somp
TTITLE12=Wanna Go Back Again Blues
TTITLE13=If You Can't Hold The Man You Love
TTITLE14=Animal Crackers
TTITLE15=Li'l Farina
TTITLE16=Jig Walk
TTITLE17=Lucky Numbers Blues
TTITLE18=I'm Gonna Put You Right In Jail
TTITLE19=East St. Louis Toodle-Oo
TTITLE20=Birmingham Breakdown
EXTD=YEAR: 1991
EXTT0=
EXTT1=
EXTT2=
EXTT3=
EXTT4=
EXTT5=
EXTT6=
EXTT7=
EXTT8=
EXTT9=
EXTT10=
EXTT11=
EXTT12=
EXTT13=
EXTT14=
EXTT15=
EXTT16=
EXTT17=
EXTT18=
EXTT19=
EXTT20=
PLAYORDER=
